<svg xmlns="http://www.w3.org/2000/svg" version="1.1" xmlns:xlink="http://www.w3.org/1999/xlink" xmlns:svgjs="http://svgjs.com/svgjs" width="4096" height="1755" preserveAspectRatio="none" viewBox="0 0 4096 1755"><g mask="url(&quot;#SvgjsMask1018&quot;)" fill="none"><rect width="4096" height="1755" x="0" y="0" fill="#0e2a47"></rect><path d="M0 703.8L10 915.51L20 1133.95L30 1067.38L40 879.88L50 742.66L60 786.37L70 752.94L80 964.34L90 1141.76L100 1186.35L110 1267.05L120 1094.51L130 988.65L140 1182.05L150 1200.17L160 1271.96L170 1153.03L180 1161.97L190 1342.51L200 1362.36L210 1175.33L220 1197.37L230 1305.27L240 1300.59L250 1211.86L260 1147.05L270 1187.82L280 1010.71L290 1197.55L300 1361.21L310 1254.68L320 1293.66L330 1114.28L340 1091.09L350 1103.48L360 1091.33L370 1091.8L380 1304.19L390 1311.26L400 1371.66L410 1256.97L420 1083.15L430 882.87L440 721.46L450 854.34L460 680.88L470 478.18L480 635.68L490 821.82L500 702.27L510 906.27L520 870.5L530 695.15L540 481.64L550 362.07L560 206.84L570 50.84L580 246.09L590 289.52L600 422.75L610 630.04L620 736.13L630 551.84L640 386.61L650 598.21L660 715.04L670 581.08L680 525.1L690 468.18L700 504.65L710 436.5L720 606.02L730 825.37L740 934.24L750 757.21L760 635.34L770 443.23L780 497.71L790 493.8L800 339.71L810 129.28L820 248.79L830 255.22L840 459.53L850 331.41L860 341.6L870 534.43L880 553.28L890 602.23L900 422.13L910 207.25L920 37.97L930 189.9L940 57.2L950 143.25L960 305.45L970 181.75L980 350.22L990 149.41L1000 149.78L1010 361.03L1020 198.08L1030 103.2L1040 99.39L1050 88.2L1060 108.08L1070 234.59L1080 56.73L1090 269.25L1100 252.97L1110 124.64L1120 187.15L1130 130.78L1140 109.12L1150 167.41L1160 91.87L1170 174.29L1180 89.55L1190 64.25L1200 20.84L1210 117.12L1220 43.58L1230 139.11L1240 275.72L1250 82.5L1260 67.42L1270 18.44L1280 35.54L1290 45.31L1300 163.46L1310 39.38L1320 36.78L1330 43.02L1340 92.17L1350 205.47L1360 50.81L1370 38.11L1380 50.31L1390 63.2L1400 255.75L1410 160.86L1420 135.69L1430 245.88L1440 453.03L1450 456.05L1460 591.94L1470 554.09L1480 377.06L1490 511.88L1500 455.44L1510 638.61L1520 826.76L1530 639.31L1540 482.3L1550 488.01L1560 561.68L1570 689.72L1580 505.82L1590 304.53L1600 172.57L1610 386.78L1620 504.74L1630 711.06L1640 788.76L1650 816.37L1660 921.85L1670 1011.78L1680 1221.01L1690 1050.97L1700 1124.16L1710 1263.56L1720 1288.17L1730 1301.01L1740 1470.16L1750 1398.13L1760 1524.45L1770 1589.95L1780 1725.59L1790 1597.78L1800 1404.75L1810 1411.03L1820 1616.62L1830 1400.73L1840 1401.04L1850 1617.58L1860 1639.67L1870 1454.6L1880 1422.8L1890 1636.07L1900 1624.92L1910 1574.54L1920 1727.97L1930 1594.16L1940 1450.38L1950 1372.55L1960 1354L1970 1323.37L1980 1240.28L1990 1037.24L2000 930.22L2010 1080.33L2020 1074.71L2030 939.98L2040 1079.22L2050 943.04L2060 916.78L2070 1018.83L2080 1203.07L2090 1218.41L2100 1203.69L2110 1172.99L2120 1150.6L2130 983.44L2140 970.04L2150 876.17L2160 890.51L2170 984.46L2180 1034.82L2190 961.86L2200 967.07L2210 891.3L2220 943.53L2230 1021.23L2240 946.79L2250 837.9L2260 694.61L2270 688.88L2280 576.51L2290 445.65L2300 231.99L2310 440.5L2320 377.49L2330 179.24L2340 85.18L2350 130.13L2360 192.85L2370 8.98L2380 36.35L2390 166.26L2400 272.73L2410 166.26L2420 129.53L2430 193.84L2440 37.14L2450 5.56L2460 221.91L2470 194.79L2480 5.69L2490 188.86L2500 391.9L2510 407.19L2520 215.7L2530 113.95L2540 266.13L2550 59.24L2560 185.39L2570 216.65L2580 367.34L2590 316.29L2600 368.19L2610 388.76L2620 572.7L2630 785.34L2640 599.38L2650 657.61L2660 803.12L2670 611.07L2680 608.88L2690 771.85L2700 613.38L2710 550.75L2720 476.76L2730 603.3L2740 495.74L2750 648.81L2760 834.83L2770 929.9L2780 1064.63L2790 1173.61L2800 1204.08L2810 995.92L2820 910.39L2830 1027.31L2840 903.14L2850 712.75L2860 611.88L2870 675.33L2880 770.96L2890 922.82L2900 989.23L2910 1070.1L2920 913.65L2930 829.15L2940 855.18L2950 673.07L2960 687.25L2970 660.67L2980 630.12L2990 553.92L3000 448.21L3010 303.78L3020 460.36L3030 537.57L3040 755.13L3050 771.12L3060 594.76L3070 776.95L3080 618.37L3090 474.6L3100 392.87L3110 565.65L3120 764.14L3130 630.88L3140 813.66L3150 809.38L3160 736.75L3170 674.53L3180 822.05L3190 698.08L3200 804.15L3210 936.93L3220 740.17L3230 823.99L3240 909.36L3250 692.27L3260 671.02L3270 685.68L3280 738.27L3290 749.5L3300 940.56L3310 881.25L3320 976.56L3330 1138.07L3340 1289.42L3350 1353.89L3360 1302.81L3370 1137.07L3380 1352.89L3390 1199.39L3400 1037.9L3410 841.61L3420 804.25L3430 866.67L3440 977.16L3450 1013.01L3460 1087.47L3470 1207.27L3480 1388.67L3490 1465.05L3500 1324.67L3510 1288.86L3520 1079.43L3530 867.11L3540 673.5L3550 887.3L3560 927.1L3570 1053.33L3580 1160.37L3590 1131.84L3600 1039.41L3610 1062.24L3620 1121.62L3630 977.97L3640 901.19L3650 899.53L3660 782.4L3670 770.5L3680 873.3L3690 1021.03L3700 1215.3L3710 1057.4L3720 1162.38L3730 1146.53L3740 1319.61L3750 1410.04L3760 1273.36L3770 1478.2L3780 1693.28L3790 1647.15L3800 1635.09L3810 1647.47L3820 1432.68L3830 1233.16L3840 1159L3850 1022L3860 999.38L3870 1010.33L3880 1157.78L3890 1333.18L3900 1540.33L3910 1388.05L3920 1466.35L3930 1538.64L3940 1520.67L3950 1541L3960 1739.89L3970 1690.87L3980 1703.56L3990 1589.29L4000 1661.88L4010 1747.58L4020 1612.98L4030 1450.75L4040 1642.07L4050 1665.99L4060 1701.53L4070 1718.11L4080 1742.52L4090 1738.9L4100 1628.46" stroke="#224b75" stroke-width="2"></path><path d="M0 703.8L10 915.51L20 1133.95L30 1067.38L40 879.88L50 742.66L60 786.37L70 752.94L80 964.34L90 1141.76L100 1186.35L110 1267.05L120 1094.51L130 988.65L140 1182.05L150 1200.17L160 1271.96L170 1153.03L180 1161.97L190 1342.51L200 1362.36L210 1175.33L220 1197.37L230 1305.27L240 1300.59L250 1211.86L260 1147.05L270 1187.82L280 1010.71L290 1197.55L300 1361.21L310 1254.68L320 1293.66L330 1114.28L340 1091.09L350 1103.48L360 1091.33L370 1091.8L380 1304.19L390 1311.26L400 1371.66L410 1256.97L420 1083.15L430 882.87L440 721.46L450 854.34L460 680.88L470 478.18L480 635.68L490 821.82L500 702.27L510 906.27L520 870.5L530 695.15L540 481.64L550 362.07L560 206.84L570 50.84L580 246.09L590 289.52L600 422.75L610 630.04L620 736.13L630 551.84L640 386.61L650 598.21L660 715.04L670 581.08L680 525.1L690 468.18L700 504.65L710 436.5L720 606.02L730 825.37L740 934.24L750 757.21L760 635.34L770 443.23L780 497.71L790 493.8L800 339.71L810 129.28L820 248.79L830 255.22L840 459.53L850 331.41L860 341.6L870 534.43L880 553.28L890 602.23L900 422.13L910 207.25L920 37.97L930 189.9L940 57.2L950 143.25L960 305.45L970 181.75L980 350.22L990 149.41L1000 149.78L1010 361.03L1020 198.08L1030 103.2L1040 99.39L1050 88.2L1060 108.08L1070 234.59L1080 56.73L1090 269.25L1100 252.97L1110 124.64L1120 187.15L1130 130.78L1140 109.12L1150 167.41L1160 91.87L1170 174.29L1180 89.55L1190 64.25L1200 20.84L1210 117.12L1220 43.58L1230 139.11L1240 275.72L1250 82.5L1260 67.42L1270 18.44L1280 35.54L1290 45.31L1300 163.46L1310 39.38L1320 36.78L1330 43.02L1340 92.17L1350 205.47L1360 50.81L1370 38.11L1380 50.31L1390 63.2L1400 255.75L1410 160.86L1420 135.69L1430 245.88L1440 453.03L1450 456.05L1460 591.94L1470 554.09L1480 377.06L1490 511.88L1500 455.44L1510 638.61L1520 826.76L1530 639.31L1540 482.3L1550 488.01L1560 561.68L1570 689.72L1580 505.82L1590 304.53L1600 172.57L1610 386.78L1620 504.74L1630 711.06L1640 788.76L1650 816.37L1660 921.85L1670 1011.78L1680 1221.01L1690 1050.97L1700 1124.16L1710 1263.56L1720 1288.17L1730 1301.01L1740 1470.16L1750 1398.13L1760 1524.45L1770 1589.95L1780 1725.59L1790 1597.78L1800 1404.75L1810 1411.03L1820 1616.62L1830 1400.73L1840 1401.04L1850 1617.58L1860 1639.67L1870 1454.6L1880 1422.8L1890 1636.07L1900 1624.92L1910 1574.54L1920 1727.97L1930 1594.16L1940 1450.38L1950 1372.55L1960 1354L1970 1323.37L1980 1240.28L1990 1037.24L2000 930.22L2010 1080.33L2020 1074.71L2030 939.98L2040 1079.22L2050 943.04L2060 916.78L2070 1018.83L2080 1203.07L2090 1218.41L2100 1203.69L2110 1172.99L2120 1150.6L2130 983.44L2140 970.04L2150 876.17L2160 890.51L2170 984.46L2180 1034.82L2190 961.86L2200 967.07L2210 891.3L2220 943.53L2230 1021.23L2240 946.79L2250 837.9L2260 694.61L2270 688.88L2280 576.51L2290 445.65L2300 231.99L2310 440.5L2320 377.49L2330 179.24L2340 85.18L2350 130.13L2360 192.85L2370 8.98L2380 36.35L2390 166.26L2400 272.73L2410 166.26L2420 129.53L2430 193.84L2440 37.14L2450 5.56L2460 221.91L2470 194.79L2480 5.69L2490 188.86L2500 391.9L2510 407.19L2520 215.7L2530 113.95L2540 266.13L2550 59.24L2560 185.39L2570 216.65L2580 367.34L2590 316.29L2600 368.19L2610 388.76L2620 572.7L2630 785.34L2640 599.38L2650 657.61L2660 803.12L2670 611.07L2680 608.88L2690 771.85L2700 613.38L2710 550.75L2720 476.76L2730 603.3L2740 495.74L2750 648.81L2760 834.83L2770 929.9L2780 1064.63L2790 1173.61L2800 1204.08L2810 995.92L2820 910.39L2830 1027.31L2840 903.14L2850 712.75L2860 611.88L2870 675.33L2880 770.96L2890 922.82L2900 989.23L2910 1070.1L2920 913.65L2930 829.15L2940 855.18L2950 673.07L2960 687.25L2970 660.67L2980 630.12L2990 553.92L3000 448.21L3010 303.78L3020 460.36L3030 537.57L3040 755.13L3050 771.12L3060 594.76L3070 776.95L3080 618.37L3090 474.6L3100 392.87L3110 565.65L3120 764.14L3130 630.88L3140 813.66L3150 809.38L3160 736.75L3170 674.53L3180 822.05L3190 698.08L3200 804.15L3210 936.93L3220 740.17L3230 823.99L3240 909.36L3250 692.27L3260 671.02L3270 685.68L3280 738.27L3290 749.5L3300 940.56L3310 881.25L3320 976.56L3330 1138.07L3340 1289.42L3350 1353.89L3360 1302.81L3370 1137.07L3380 1352.89L3390 1199.39L3400 1037.9L3410 841.61L3420 804.25L3430 866.67L3440 977.16L3450 1013.01L3460 1087.47L3470 1207.27L3480 1388.67L3490 1465.05L3500 1324.67L3510 1288.86L3520 1079.43L3530 867.11L3540 673.5L3550 887.3L3560 927.1L3570 1053.33L3580 1160.37L3590 1131.84L3600 1039.41L3610 1062.24L3620 1121.62L3630 977.97L3640 901.19L3650 899.53L3660 782.4L3670 770.5L3680 873.3L3690 1021.03L3700 1215.3L3710 1057.4L3720 1162.38L3730 1146.53L3740 1319.61L3750 1410.04L3760 1273.36L3770 1478.2L3780 1693.28L3790 1647.15L3800 1635.09L3810 1647.47L3820 1432.68L3830 1233.16L3840 1159L3850 1022L3860 999.38L3870 1010.33L3880 1157.78L3890 1333.18L3900 1540.33L3910 1388.05L3920 1466.35L3930 1538.64L3940 1520.67L3950 1541L3960 1739.89L3970 1690.87L3980 1703.56L3990 1589.29L4000 1661.88L4010 1747.58L4020 1612.98L4030 1450.75L4040 1642.07L4050 1665.99L4060 1701.53L4070 1718.11L4080 1742.52L4090 1738.9L4100 1628.46L4100 1755L0 1755z" fill="url(#SvgjsLinearGradient1019)"></path></g><defs><mask id="SvgjsMask1018"><rect width="4096" height="1755" fill="#ffffff"></rect></mask><linearGradient x1="50%" y1="0%" x2="50%" y2="100%" id="SvgjsLinearGradient1019"><stop stop-opacity="0.65" stop-color="#224b75" offset="0"></stop><stop stop-opacity="0" stop-color="#508dcc" offset="0.8"></stop></linearGradient></defs></svg>